<svg width="132" height="132" viewBox="0 0 132 132" fill="none" xmlns="http://www.w3.org/2000/svg">
<circle opacity="0.05" cx="66" cy="66" r="66" fill="#00B066"/>
<path d="M45.18 39C43.89 39 42.66 39.42 41.52 40.26C40.38 41.1 39.72 42.18 39.42 43.5L36.33 56.73C35.58 60 36.18 62.85 38.16 65.31L39 66.15V87C39 88.5 39.6 90 40.83 91.17C42.06 92.34 43.5 93 45 93H87C88.5 93 90 92.4 91.17 91.17C92.34 89.94 93 88.5 93 87V66.15L93.84 65.31C95.82 62.85 96.42 60 95.67 56.73L92.58 43.5C92.19 42.18 91.5 41.1 90.39 40.26C89.31 39.42 88.14 39 86.82 39H45.18ZM86.67 44.91L89.91 58.14C90.18 59.43 89.91 60.6 89.07 61.65C88.32 62.58 87.39 63 86.25 63C85.32 63 84.51 62.7 83.85 61.98C83.19 61.29 82.83 60.48 82.74 59.52L80.91 45L86.67 44.91ZM45.18 45H51.09L49.26 59.52C48.9 61.89 47.73 63 45.75 63C44.52 63 43.59 62.58 42.93 61.65C42.09 60.6 41.82 59.43 42.09 58.14L45.18 45ZM57.15 45H63V59.1C63 60.15 62.67 61.05 61.92 61.86C61.17 62.64 60.24 63 59.1 63C58.08 63 57.21 62.64 56.52 61.77C55.83 60.9 55.5 60 55.5 58.98V58.5L57.15 45ZM69 45H74.85L76.5 58.5C76.74 59.76 76.5 60.81 75.63 61.71C74.85 62.61 73.83 63 72.6 63C71.67 63 70.83 62.64 70.08 61.86C69.33 61.05 69 60.15 69 59.1V45ZM52.35 66.15C54.24 68.01 56.58 69 59.4 69C61.92 69 64.14 68.01 66 66.15C68.07 68.01 70.35 69 72.9 69C75.51 69 77.76 68.01 79.65 66.15C81.33 68.01 83.58 69 86.4 69H87.09V87H45V69H45.75C48.48 69 50.67 68.01 52.35 66.15Z" fill="#00B066"/>
</svg>
