<svg width="894" height="656" viewBox="0 0 894 656" fill="none" xmlns="http://www.w3.org/2000/svg">
<g opacity="0.07">
<path fill-rule="evenodd" clip-rule="evenodd" d="M587.456 489.659L650.813 453.06V509.391L587.456 545.99V489.659Z" fill="#56729A"/>
<path fill-rule="evenodd" clip-rule="evenodd" d="M650.813 453.06L538.245 368.967V425.298L650.813 509.391V453.06Z" fill="#56729A"/>
<path fill-rule="evenodd" clip-rule="evenodd" d="M538.244 368.967L474.888 405.566V461.897L538.244 425.298V368.967Z" fill="#56729A"/>
<path fill-rule="evenodd" clip-rule="evenodd" d="M474.888 405.566L587.456 489.659V545.99L474.888 461.897V405.566Z" fill="#56729A"/>
<path fill-rule="evenodd" clip-rule="evenodd" d="M414.333 861.351L97.8448 624.734V681.065L414.333 917.682V861.351Z" fill="#56729A"/>
<path fill-rule="evenodd" clip-rule="evenodd" d="M101.528 590.944L677.041 258.489V314.82L101.528 647.275V590.944Z" fill="#56729A"/>
<path fill-rule="evenodd" clip-rule="evenodd" d="M677.04 258.489L698.257 273.98V330.311L677.04 314.82V258.489Z" fill="#56729A"/>
<path fill-rule="evenodd" clip-rule="evenodd" d="M735.83 266.064L748.207 192.355V248.686L735.83 322.395V266.064Z" fill="#56729A"/>
<path fill-rule="evenodd" clip-rule="evenodd" d="M727.136 176.95L613.242 176.184V232.515L727.136 233.281V176.95Z" fill="#56729A"/>
<path fill-rule="evenodd" clip-rule="evenodd" d="M596.593 199.591L621.789 218.06V274.391L596.593 255.922V199.591Z" fill="#56729A"/>
<path fill-rule="evenodd" clip-rule="evenodd" d="M621.789 218.06L38.9092 554.771V611.102L621.789 274.391V218.06Z" fill="#56729A"/>
<path fill-rule="evenodd" clip-rule="evenodd" d="M869.615 616.903L751.3 528.3V584.631L869.615 673.234V616.903Z" fill="#56729A"/>
<path fill-rule="evenodd" clip-rule="evenodd" d="M751.3 528.3L687.944 564.899V621.23L751.3 584.631V528.3Z" fill="#56729A"/>
<path fill-rule="evenodd" clip-rule="evenodd" d="M687.944 564.899L799.333 648.14V704.471L687.944 621.23V564.899Z" fill="#56729A"/>
<path fill-rule="evenodd" clip-rule="evenodd" d="M582.155 -41.4515L267.436 140.352V196.683L582.155 14.8795V-41.4515Z" fill="#56729A"/>
<path fill-rule="evenodd" clip-rule="evenodd" d="M256.238 241.807L374.553 330.411V386.742L256.238 298.138V241.807Z" fill="#56729A"/>
<path fill-rule="evenodd" clip-rule="evenodd" d="M374.553 330.411L437.909 293.812V350.143L374.553 386.742V330.411Z" fill="#56729A"/>
<path fill-rule="evenodd" clip-rule="evenodd" d="M437.909 293.812L326.519 210.4V266.731L437.909 350.143V293.812Z" fill="#56729A"/>
<path fill-rule="evenodd" clip-rule="evenodd" d="M330.203 176.61L645.07 -5.2782V51.0528L330.203 232.941V176.61Z" fill="#56729A"/>
<path fill-rule="evenodd" clip-rule="evenodd" d="M711.52 -2.80988L1027.86 233.891V290.222L711.52 53.5211V-2.80988Z" fill="#56729A"/>
<path fill-rule="evenodd" clip-rule="evenodd" d="M1024.18 267.682L446.159 601.583V657.914L1024.18 324.013V267.682Z" fill="#56729A"/>
<path fill-rule="evenodd" clip-rule="evenodd" d="M446.159 601.583L423.026 584.646V640.977L446.159 657.914V601.583Z" fill="#56729A"/>
<path fill-rule="evenodd" clip-rule="evenodd" d="M385.455 592.561L373.078 666.27V722.601L385.455 648.892V592.561Z" fill="#56729A"/>
<path fill-rule="evenodd" clip-rule="evenodd" d="M524.693 659.035L501.56 642.098V698.429L524.693 715.366V659.035Z" fill="#56729A"/>
<path fill-rule="evenodd" clip-rule="evenodd" d="M501.56 642.098L1087.09 303.856V360.187L501.56 698.429V642.098Z" fill="#56729A"/>
<path fill-rule="evenodd" clip-rule="evenodd" d="M1098.29 202.4L782.096 -34.2163V22.1147L1098.29 258.731V202.4Z" fill="#56729A"/>
<path fill-rule="evenodd" clip-rule="evenodd" d="M799.333 648.14C805.298 652.634 808.324 657.969 808.513 663.302V719.633C808.324 714.299 805.298 708.965 799.333 704.471V648.14Z" fill="#56729A"/>
<path fill-rule="evenodd" clip-rule="evenodd" d="M97.8448 624.734C91.8804 620.24 88.8541 614.905 88.6655 609.572V665.903C88.8541 671.236 91.8804 676.571 97.8448 681.065V624.734Z" fill="#56729A"/>
<path fill-rule="evenodd" clip-rule="evenodd" d="M88.6655 609.572C88.4254 602.783 92.7819 595.996 101.528 590.944V647.275C92.7819 652.327 88.4254 659.114 88.6655 665.903V609.572Z" fill="#56729A"/>
<path fill-rule="evenodd" clip-rule="evenodd" d="M698.257 273.98C710.635 283.002 733.915 278.235 735.83 266.064V322.395C733.915 334.566 710.635 339.333 698.257 330.311V273.98Z" fill="#56729A"/>
<path fill-rule="evenodd" clip-rule="evenodd" d="M748.207 192.355C748.26 192.025 748.295 191.696 748.313 191.37V247.701C748.295 248.027 748.26 248.356 748.207 248.686V192.355Z" fill="#56729A"/>
<path fill-rule="evenodd" clip-rule="evenodd" d="M748.313 191.37C748.75 183.539 739.301 176.95 727.136 176.95V233.281C739.301 233.281 748.75 239.87 748.313 247.701V191.37Z" fill="#56729A"/>
<path fill-rule="evenodd" clip-rule="evenodd" d="M613.242 176.184C600.518 176.126 591.745 182.759 591.279 189.873V246.204C591.745 239.09 600.518 232.457 613.242 232.515V176.184Z" fill="#56729A"/>
<path fill-rule="evenodd" clip-rule="evenodd" d="M591.279 189.873C591.06 193.221 592.68 196.676 596.593 199.591V255.922C592.68 253.007 591.06 249.552 591.279 246.204V189.873Z" fill="#56729A"/>
<path fill-rule="evenodd" clip-rule="evenodd" d="M38.9092 554.771C14.3152 568.978 1.2351 587.581 0.0833282 606.463V662.794C1.2351 643.912 14.3152 625.309 38.9092 611.102V554.771Z" fill="#56729A"/>
<path fill-rule="evenodd" clip-rule="evenodd" d="M0.0833625 606.463C-0.979812 623.892 8.12083 641.559 27.7114 656.226V712.557C8.12083 697.89 -0.979812 680.223 0.0833625 662.794V606.463Z" fill="#56729A"/>
<path fill-rule="evenodd" clip-rule="evenodd" d="M897.243 666.667C898.306 649.237 889.205 631.57 869.615 616.903V673.234C889.205 687.901 898.306 705.568 897.243 722.998V666.667Z" fill="#56729A"/>
<path fill-rule="evenodd" clip-rule="evenodd" d="M684.85 -63.8358C646.689 -65.2828 609.265 -57.1122 582.155 -41.4515V14.8795C609.265 -0.781242 646.689 -8.95185 684.85 -7.50484V-63.8358Z" fill="#56729A"/>
<path fill-rule="evenodd" clip-rule="evenodd" d="M267.436 140.352C242.841 154.559 229.761 173.162 228.61 192.044V248.375C229.761 229.493 242.841 210.89 267.436 196.683V140.352Z" fill="#56729A"/>
<path fill-rule="evenodd" clip-rule="evenodd" d="M228.609 192.044C227.546 209.474 236.647 227.141 256.238 241.807V298.138C236.647 283.472 227.546 265.804 228.609 248.375V192.044Z" fill="#56729A"/>
<path fill-rule="evenodd" clip-rule="evenodd" d="M326.519 210.4C320.555 205.907 317.5 200.589 317.292 195.266V251.597C317.5 256.92 320.555 262.237 326.519 266.731V210.4Z" fill="#56729A"/>
<path fill-rule="evenodd" clip-rule="evenodd" d="M317.292 195.266C317.027 188.492 321.374 181.71 330.203 176.61V232.941C321.374 238.041 317.027 244.823 317.292 251.597V195.266Z" fill="#56729A"/>
<path fill-rule="evenodd" clip-rule="evenodd" d="M645.07 -5.27826C654.204 -10.5551 666.434 -13.1936 679.252 -12.7681V43.5629C666.434 43.1374 654.204 45.7759 645.07 51.0527V-5.27826Z" fill="#56729A"/>
<path fill-rule="evenodd" clip-rule="evenodd" d="M679.252 -12.7681C692.218 -12.2574 703.564 -8.76786 711.52 -2.80988V53.5211C703.564 47.5631 692.218 44.0735 679.252 43.5629V-12.7681Z" fill="#56729A"/>
<path fill-rule="evenodd" clip-rule="evenodd" d="M423.026 584.646C410.65 575.624 387.37 580.39 385.455 592.561V648.892C387.37 636.721 410.65 631.955 423.026 640.977V584.646Z" fill="#56729A"/>
<path fill-rule="evenodd" clip-rule="evenodd" d="M782.095 -34.2164C758.522 -51.5801 723.16 -62.4747 684.85 -63.8358V-7.50485C723.16 -6.14375 758.522 4.75087 782.095 22.1146V-34.2164Z" fill="#56729A"/>
<path d="M587.456 489.659L650.813 453.06L538.244 368.967L474.888 405.566L587.456 489.659ZM799.333 648.14C812.889 658.354 811.268 672.908 795.65 681.93L480.783 863.819C471.648 869.096 459.418 871.734 446.6 871.309C433.634 870.798 422.289 867.308 414.333 861.351L97.8448 624.734C84.2894 614.52 85.91 599.966 101.528 590.944L677.041 258.489L698.257 273.98C710.635 283.002 733.915 278.235 735.83 266.064L748.207 192.355C749.533 184.1 739.808 176.95 727.136 176.95L613.242 176.184C594.53 176.099 584.364 190.483 596.593 199.591L621.789 218.06L38.9092 554.771C-8.38681 582.092 -13.1022 625.67 27.7114 656.226L343.905 892.843C367.331 910.291 402.692 921.185 440.854 922.632C479.015 924.079 516.44 915.909 543.551 900.248L858.417 718.359C905.714 691.038 910.428 647.459 869.615 616.903L751.3 528.3L687.944 564.899L799.333 648.14ZM684.851 -63.8358C646.689 -65.2828 609.265 -57.1122 582.155 -41.4515L267.436 140.352C220.139 167.674 215.424 211.252 256.238 241.807L374.553 330.411L437.909 293.812L326.519 210.4C312.964 200.187 314.437 185.718 330.203 176.61L645.07 -5.27821C654.204 -10.555 666.434 -13.1936 679.252 -12.7681C692.218 -12.2574 703.564 -8.76785 711.52 -2.80986L1027.86 233.891C1041.41 244.106 1039.94 258.575 1024.18 267.682L446.159 601.583L423.026 584.646C410.65 575.624 387.37 580.39 385.455 592.561L373.078 666.27C371.753 674.526 381.478 681.676 394.148 681.675L508.043 682.441C526.755 682.527 536.921 668.143 524.692 659.035L501.56 642.098L1087.09 303.856C1134.39 276.534 1139.1 232.956 1098.29 202.4L782.096 -34.2163C758.522 -51.5801 723.16 -62.4747 684.851 -63.8358Z" fill="white"/>
</g>
</svg>
