<svg width="120" height="120" viewBox="0 0 120 120" fill="none" xmlns="http://www.w3.org/2000/svg">
<circle opacity="0.05" cx="60" cy="60" r="60" fill="#00B066"/>
<path d="M33.75 49.5H56.5L58.25 53H35.5L33.75 49.5ZM36.0833 56.5H58.8333L60.5833 60H37.8333L36.0833 56.5ZM74 75.1667C75.9367 75.1667 77.5 73.6034 77.5 71.6667C77.5 69.73 75.9367 68.1667 74 68.1667C72.0633 68.1667 70.5 69.73 70.5 71.6667C70.5 73.6034 72.0633 75.1667 74 75.1667ZM77.5 54.1667H71.6667V60H82.0733L77.5 54.1667ZM50.6667 75.1667C52.6033 75.1667 54.1667 73.6034 54.1667 71.6667C54.1667 69.73 52.6033 68.1667 50.6667 68.1667C48.73 68.1667 47.1667 69.73 47.1667 71.6667C47.1667 73.6034 48.73 75.1667 50.6667 75.1667ZM78.6667 50.6667L85.6667 60V71.6667H81C81 75.54 77.8733 78.6667 74 78.6667C70.1267 78.6667 67 75.54 67 71.6667H57.6667C57.6667 75.54 54.5167 78.6667 50.6667 78.6667C46.7933 78.6667 43.6667 75.54 43.6667 71.6667H39V63.5H43.6667V67H45.44C46.7233 65.5767 48.59 64.6667 50.6667 64.6667C52.7433 64.6667 54.61 65.5767 55.8933 67H67V46H39C39 43.41 41.0767 41.3334 43.6667 41.3334H71.6667V50.6667H78.6667Z" fill="#00B066"/>
</svg>
