<svg width="120" height="120" viewBox="0 0 120 120" fill="none" xmlns="http://www.w3.org/2000/svg">
<circle opacity="0.05" cx="60" cy="60" r="60" fill="#00B066"/>
<path d="M57.6667 46.0001H64.6667L72.3433 38.3001C72.5603 38.0814 72.8183 37.9078 73.1027 37.7893C73.387 37.6709 73.692 37.6099 74 37.6099C74.308 37.6099 74.613 37.6709 74.8973 37.7893C75.1817 37.9078 75.4398 38.0814 75.6567 38.3001L81.6767 44.3434C82.1113 44.7806 82.3552 45.372 82.3552 45.9884C82.3552 46.6048 82.1113 47.1962 81.6767 47.6334L76.3333 53.0001H57.6667V57.6667C57.6667 58.2856 57.4208 58.8791 56.9833 59.3166C56.5457 59.7542 55.9522 60.0001 55.3333 60.0001C54.7145 60.0001 54.121 59.7542 53.6834 59.3166C53.2458 58.8791 53 58.2856 53 57.6667V50.6667C53 49.429 53.4917 48.2421 54.3668 47.3669C55.242 46.4917 56.429 46.0001 57.6667 46.0001ZM43.6667 57.6667V67.0001L38.3233 72.3434C37.8888 72.7806 37.6448 73.372 37.6448 73.9884C37.6448 74.6048 37.8888 75.1962 38.3233 75.6334L44.3433 81.6767C44.5603 81.8954 44.8183 82.069 45.1027 82.1875C45.387 82.3059 45.692 82.3669 46 82.3669C46.308 82.3669 46.613 82.3059 46.8973 82.1875C47.1817 82.069 47.4398 81.8954 47.6567 81.6767L57.6667 71.6667H67C67.6188 71.6667 68.2123 71.4209 68.6499 70.9833C69.0875 70.5457 69.3333 69.9522 69.3333 69.3334V67.0001H71.6667C72.2855 67.0001 72.879 66.7542 73.3166 66.3166C73.7542 65.8791 74 65.2856 74 64.6667V62.3334H76.3333C76.9522 62.3334 77.5457 62.0876 77.9833 61.65C78.4208 61.2124 78.6667 60.6189 78.6667 60.0001V57.6667H62.3333V60.0001C62.3333 61.2377 61.8417 62.4247 60.9665 63.2999C60.0913 64.1751 58.9043 64.6667 57.6667 64.6667H53C51.7623 64.6667 50.5753 64.1751 49.7002 63.2999C48.825 62.4247 48.3333 61.2377 48.3333 60.0001V53.0001L43.6667 57.6667Z" fill="#00B066"/>
</svg>
