<svg width="28" height="28" viewBox="0 0 28 28" fill="none" xmlns="http://www.w3.org/2000/svg">
<path d="M24.6667 0.666504H3.33335C2.62611 0.666504 1.94783 0.947455 1.44774 1.44755C0.947638 1.94765 0.666687 2.62593 0.666687 3.33317V27.3332L6.00002 21.9998H24.6667C25.3739 21.9998 26.0522 21.7189 26.5523 21.2188C27.0524 20.7187 27.3334 20.0404 27.3334 19.3332V3.33317C27.3334 2.62593 27.0524 1.94765 26.5523 1.44755C26.0522 0.947455 25.3739 0.666504 24.6667 0.666504ZM6.00002 9.99984H22V12.6665H6.00002V9.99984ZM16.6667 16.6665H6.00002V13.9998H16.6667V16.6665ZM22 8.6665H6.00002V5.99984H22" fill="white"/>
</svg>
