<svg width="120" height="120" viewBox="0 0 120 120" fill="none" xmlns="http://www.w3.org/2000/svg">
<circle opacity="0.05" cx="60" cy="60" r="60" fill="#00B066"/>
<path d="M57.6667 46H64.6667L72.3433 38.3C72.5602 38.0813 72.8183 37.9077 73.1027 37.7893C73.387 37.6708 73.692 37.6098 74 37.6098C74.308 37.6098 74.613 37.6708 74.8973 37.7893C75.1817 37.9077 75.4398 38.0813 75.6567 38.3L81.6767 44.3433C82.1113 44.7805 82.3552 45.3719 82.3552 45.9883C82.3552 46.6048 82.1113 47.1962 81.6767 47.6333L76.3333 53H57.6667V57.6667C57.6667 58.2855 57.4208 58.879 56.9832 59.3166C56.5457 59.7542 55.9522 60 55.3333 60C54.7145 60 54.121 59.7542 53.6834 59.3166C53.2458 58.879 53 58.2855 53 57.6667V50.6667C53 49.429 53.4917 48.242 54.3668 47.3668C55.242 46.4917 56.429 46 57.6667 46ZM43.6667 57.6667V67L38.3233 72.3433C37.8887 72.7805 37.6448 73.3719 37.6448 73.9883C37.6448 74.6048 37.8887 75.1962 38.3233 75.6333L44.3433 81.6767C44.5602 81.8954 44.8183 82.069 45.1027 82.1874C45.387 82.3059 45.692 82.3669 46 82.3669C46.308 82.3669 46.613 82.3059 46.8973 82.1874C47.1817 82.069 47.4398 81.8954 47.6567 81.6767L57.6667 71.6667H67C67.6188 71.6667 68.2123 71.4208 68.6499 70.9832C69.0875 70.5457 69.3333 69.9522 69.3333 69.3333V67H71.6667C72.2855 67 72.879 66.7542 73.3166 66.3166C73.7542 65.879 74 65.2855 74 64.6667V62.3333H76.3333C76.9522 62.3333 77.5457 62.0875 77.9832 61.6499C78.4208 61.2123 78.6667 60.6188 78.6667 60V57.6667H62.3333V60C62.3333 61.2377 61.8417 62.4247 60.9665 63.2998C60.0913 64.175 58.9043 64.6667 57.6667 64.6667H53C51.7623 64.6667 50.5753 64.175 49.7002 63.2998C48.825 62.4247 48.3333 61.2377 48.3333 60V53L43.6667 57.6667Z" fill="#00B066"/>
</svg>
