<svg width="120" height="120" viewBox="0 0 120 120" fill="none" xmlns="http://www.w3.org/2000/svg">
<circle opacity="0.05" cx="60" cy="60" r="60" fill="#00B066"/>
<path d="M37.3667 79.32L59.7667 56.92L56.5 53.6067L54.82 55.2633C53.91 56.1733 52.44 56.1733 51.53 55.2633L49.8733 53.6067C48.9633 52.6967 48.9633 51.2267 49.8733 50.3167L63.08 37.11C63.99 36.2 65.46 36.2 66.37 37.11L68.0267 38.7667C68.9367 39.6767 68.9367 41.1467 68.0267 42.0567L66.37 43.6667L69.6833 47.0033C70.5933 46.0933 72.0633 46.0933 72.9733 47.0033C73.8833 47.9133 73.8833 49.4067 72.9733 50.3167L76.2633 53.6067L77.92 51.95C78.83 51.04 80.3233 51.04 81.2333 51.95L82.8667 53.6067C83.7767 54.5167 83.7767 56.01 82.8667 56.92L69.6833 70.1033C68.7733 71.0133 67.28 71.0133 66.37 70.1033L64.7367 68.47C63.8033 67.56 63.8033 66.0667 64.7367 65.1567L66.37 63.5L63.08 60.21L40.6567 82.6333C39.7467 83.5433 38.2767 83.5433 37.3667 82.6333C36.4567 81.7233 36.4567 80.23 37.3667 79.32ZM78.6667 76.3333C79.9044 76.3333 81.0913 76.825 81.9665 77.7002C82.8417 78.5753 83.3333 79.7623 83.3333 81V83.3333H60V81C60 79.7623 60.4917 78.5753 61.3668 77.7002C62.242 76.825 63.429 76.3333 64.6667 76.3333H78.6667Z" fill="#00B066"/>
</svg>
