<svg width="140" height="140" viewBox="0 0 140 140" fill="none" xmlns="http://www.w3.org/2000/svg">
<path d="M53.0054 68.3313H60.1378L61.9929 53.8145H54.8785L53.0054 68.3313Z" fill="#92A3BC"/>
<path d="M49.4934 95.6721C49.2593 97.4371 47.7643 98.7519 45.9993 98.7519H10.5896C9.56299 98.7519 8.62641 98.3197 7.942 97.5452C7.25758 96.7707 6.95139 95.7801 7.09548 94.7715L12.3367 53.9586C12.5708 52.1935 14.0657 50.8787 15.8308 50.8787H53.4198H55.2389H62.3533H67.9367H80.5264L80.2022 53.5803C80.0221 55.1653 81.7871 55.9938 83.0839 54.9312L90.9548 48.4472C91.8373 47.7267 91.9814 46.484 91.2789 45.7635L84.9391 39.2796C83.8944 38.2169 81.9132 39.0454 81.7331 40.6304L81.3549 43.8364H67.9367H63.2538H56.1395H53.4018H15.8308C10.5176 43.8364 5.99681 47.8168 5.3304 53.076L0.0891981 93.889C-0.307044 96.9148 0.62952 99.9587 2.64675 102.228C4.66399 104.515 7.56376 105.83 10.6076 105.83H46.0173C51.3305 105.83 55.8513 101.85 56.5177 96.5906L58.4809 81.3173H51.3665L49.4934 95.6721Z" fill="#92A3BC"/>
<path d="M112.37 19.9357C110.353 17.6483 107.453 16.3335 104.409 16.3335H69.0173C63.7041 16.3335 59.1833 20.3139 58.5169 25.5731L56.5537 40.8465H63.6681L65.5232 26.4737C65.7573 24.7086 67.2522 23.3938 69.0173 23.3938H104.427C105.454 23.3938 106.39 23.8261 107.075 24.6005C107.759 25.375 108.065 26.3656 107.921 27.3742L102.68 68.1872C102.446 69.9523 100.951 71.2671 99.1858 71.2671H63.2358H59.7597H52.6453H48.7189H34.202L34.5442 68.3133C34.7244 66.7283 32.9593 65.8998 31.6625 66.9624L23.7917 73.4464C22.9091 74.1669 22.765 75.4096 23.4675 76.1301L29.8074 82.614C30.852 83.6767 32.8332 82.8482 33.0133 81.2632L33.3555 78.3094H47.152H51.7267H58.8411H61.6688H99.1678C104.481 78.3094 109.002 74.329 109.668 69.0697L114.909 28.2568C115.306 25.267 114.387 22.2231 112.37 19.9357Z" fill="#92A3BC"/>
<path d="M73.6461 95.4921C73.7541 94.7717 73.538 94.2133 72.9977 93.8171C72.4573 93.4208 71.5027 93.1507 70.1339 93.0066C68.585 92.8445 67.4143 92.3402 66.6398 91.4937C65.8473 90.6471 65.5591 89.5665 65.7752 88.2337C65.9914 86.8648 66.6938 85.7662 67.9186 84.9376C69.1253 84.1272 70.5482 83.7129 72.1511 83.7129C73.8802 83.7129 75.177 84.1452 76.0595 84.9917C76.9421 85.8382 77.3743 86.9909 77.3563 88.4318L74.5286 88.9721C74.4926 88.0896 74.2224 87.4232 73.6821 86.9369C73.1598 86.4506 72.4934 86.2164 71.6829 86.2164C70.9444 86.2164 70.296 86.3785 69.7197 86.7207C69.1433 87.0629 68.8191 87.5492 68.7291 88.1616C68.639 88.792 68.8191 89.3143 69.3054 89.6925C69.7917 90.0708 70.6562 90.359 71.899 90.5211C73.7901 90.7732 75.105 91.2955 75.8434 92.052C76.5819 92.8085 76.834 93.8711 76.6359 95.2399C76.4198 96.6808 75.6813 97.8876 74.4566 98.8602C73.2318 99.8328 71.7189 100.319 69.9538 100.319C68.0807 100.319 66.6398 99.8147 65.6492 98.8061C64.6586 97.7975 64.1723 96.4647 64.1903 94.7717L67.1981 94.2133C67.2521 96.5548 68.3328 97.7255 70.4041 97.7255C71.2506 97.7255 71.971 97.5093 72.5834 97.0951C73.1778 96.6988 73.538 96.1585 73.6461 95.4921Z" fill="#92A3BC"/>
<path d="M90.2522 94.9336H81.4988C81.4628 95.8342 81.6969 96.5366 82.1652 97.0589C82.6335 97.5813 83.3179 97.8334 84.1825 97.8334C85.5693 97.8334 86.632 97.221 87.3524 95.9783L89.8199 96.8428C89.1715 97.9595 88.325 98.824 87.2804 99.4364C86.2357 100.049 85.065 100.337 83.7862 100.337C81.9671 100.337 80.6163 99.7606 79.7157 98.6079C78.8152 97.4552 78.509 95.9603 78.7972 94.1592C79.0673 92.3761 79.8778 90.8992 81.2106 89.7285C82.5435 88.5577 84.0564 87.9634 85.7134 87.9634C87.3344 87.9634 88.5952 88.4857 89.4957 89.5123C90.3963 90.5389 90.7025 92.0159 90.3963 93.907L90.2522 94.9336ZM85.3532 90.3048C84.5607 90.3048 83.8763 90.539 83.2819 90.9892C82.6876 91.4395 82.2193 92.0519 81.9131 92.8264H87.8567C87.8747 91.1513 87.0462 90.3048 85.3532 90.3048Z" fill="#92A3BC"/>
<path d="M102.878 88.3055H105.237L103.436 99.9586H101.077L100.969 98.5898C99.8881 99.7425 98.6093 100.319 97.1324 100.319C95.5835 100.319 94.3407 99.7605 93.4042 98.6258C92.4676 97.4911 92.1434 95.9962 92.4316 94.123C92.7197 92.2679 93.5122 90.773 94.809 89.6383C96.1058 88.5036 97.5107 87.9272 99.0056 87.9272C100.573 87.9272 101.671 88.4676 102.338 89.5662L102.878 88.3055ZM101.239 91.5294C100.717 90.863 99.9962 90.5388 99.0776 90.5388C98.1591 90.5388 97.3306 90.863 96.6101 91.5294C95.8897 92.1959 95.4394 93.0604 95.2773 94.141C95.1152 95.2217 95.2953 96.0862 95.7996 96.7526C96.322 97.419 97.0424 97.7432 97.961 97.7432C98.8795 97.7432 99.708 97.401 100.428 96.7526C101.149 96.0862 101.599 95.2217 101.761 94.141C101.923 93.0604 101.743 92.1959 101.239 91.5294Z" fill="#92A3BC"/>
<path d="M114.963 88.1254L114.081 90.647C113.829 90.5389 113.523 90.4849 113.18 90.4849C112.496 90.4849 111.866 90.7911 111.307 91.4034C110.731 92.0158 110.389 92.7723 110.245 93.6908L109.272 99.9767H106.462L108.263 88.3236H110.803L110.839 89.8365C111.163 89.2781 111.595 88.8279 112.154 88.4676C112.694 88.1254 113.324 87.9453 114.045 87.9453C114.387 87.9453 114.711 87.9993 114.963 88.1254Z" fill="#92A3BC"/>
<path d="M123.302 95.618L125.86 96.5546C124.599 99.0761 122.618 100.337 119.916 100.337C118.241 100.337 116.927 99.7786 115.954 98.6439C114.999 97.5092 114.657 96.0143 114.945 94.1411C115.234 92.268 116.044 90.773 117.359 89.6384C118.674 88.5037 120.169 87.9453 121.844 87.9453C123.248 87.9453 124.365 88.3055 125.194 89.008C126.022 89.7104 126.436 90.719 126.49 92.0338L123.825 92.5561C123.771 91.9618 123.519 91.4755 123.104 91.0972C122.672 90.719 122.132 90.5209 121.447 90.5209C120.511 90.5209 119.7 90.8631 119.034 91.5295C118.367 92.1959 117.953 93.0604 117.773 94.1231C117.611 95.1857 117.755 96.0503 118.241 96.7167C118.71 97.3831 119.412 97.7253 120.331 97.7253C121.663 97.7433 122.654 97.0409 123.302 95.618Z" fill="#92A3BC"/>
<path d="M132.938 84.0908L132.056 89.8363C132.506 89.314 133.082 88.8637 133.821 88.5035C134.541 88.1433 135.334 87.9632 136.162 87.9632C137.567 87.9632 138.594 88.3774 139.26 89.2059C139.927 90.0344 140.143 91.1872 139.909 92.6641L138.774 99.9945H135.964L137.009 93.2584C137.153 92.3579 137.045 91.6915 136.685 91.2232C136.324 90.7549 135.73 90.5208 134.92 90.5208C134.073 90.5208 133.317 90.863 132.65 91.5114C131.984 92.1778 131.57 93.0243 131.425 94.0509L130.507 99.9945H127.697L130.147 84.1088H132.938V84.0908Z" fill="#92A3BC"/>
<path d="M72.3133 114.782H63.5599C63.5239 115.682 63.758 116.385 64.2263 116.907C64.7126 117.429 65.379 117.682 66.2436 117.682C67.6304 117.682 68.6931 117.069 69.4135 115.826L71.881 116.691C71.2326 117.808 70.3861 118.672 69.3415 119.285C68.2968 119.897 67.1261 120.185 65.8473 120.185C64.0282 120.185 62.6774 119.609 61.7768 118.456C60.8763 117.303 60.5701 115.808 60.8583 114.007C61.1284 112.224 61.9389 110.747 63.2718 109.577C64.6046 108.406 66.1175 107.812 67.7745 107.812C69.3955 107.812 70.6563 108.334 71.5568 109.36C72.4574 110.405 72.7636 111.864 72.4574 113.755L72.3133 114.782ZM67.4323 110.153C66.6398 110.153 65.9554 110.387 65.361 110.837C64.7667 111.288 64.2984 111.9 63.9922 112.674H69.9358C69.9538 110.999 69.1253 110.153 67.4323 110.153Z" fill="#92A3BC"/>
<path d="M78.329 108.154L78.365 109.649C78.7973 109.144 79.3556 108.712 80.094 108.352C80.8145 107.974 81.589 107.793 82.4355 107.793C83.7863 107.793 84.7769 108.19 85.4073 108.982C86.0557 109.775 86.2538 110.891 86.0377 112.314L84.867 119.825H82.0572L83.1199 112.909C83.246 112.116 83.1379 111.504 82.7957 111.035C82.4535 110.567 81.9132 110.351 81.1567 110.351C80.3102 110.351 79.5717 110.675 78.9233 111.342C78.2749 112.008 77.8787 112.855 77.7166 113.899L76.798 119.843H73.9883L75.7894 108.19H78.329V108.154Z" fill="#92A3BC"/>
<path d="M94.5748 107.793C95.9797 107.793 97.0423 108.316 97.7628 109.342L98.213 108.172H100.573L98.9335 118.726C98.6633 120.527 97.8889 121.932 96.6461 122.923C95.4033 123.913 93.9625 124.418 92.3234 124.418C89.5317 124.418 87.8927 123.283 87.4064 121.032L90.018 120.131C90.3963 121.392 91.2968 122.022 92.7197 122.022C93.5482 122.022 94.2866 121.77 94.935 121.248C95.5834 120.725 95.9617 120.005 96.1058 119.104L96.2318 118.24C95.2592 119.321 94.0525 119.843 92.6296 119.843C91.1707 119.843 89.964 119.303 89.0635 118.222C88.1449 117.141 87.8387 115.682 88.1269 113.827C88.415 111.972 89.1895 110.495 90.4323 109.432C91.6931 108.334 93.0799 107.793 94.5748 107.793ZM93.5842 117.231C94.5028 117.231 95.2953 116.925 95.9257 116.295C96.574 115.682 96.9703 114.836 97.1324 113.791C97.2945 112.746 97.1504 111.918 96.7001 111.288C96.2499 110.675 95.5654 110.351 94.6469 110.351C93.7103 110.351 92.9178 110.657 92.2514 111.288C91.585 111.9 91.1707 112.746 91.0086 113.791C90.8465 114.836 91.0087 115.664 91.4769 116.295C91.9272 116.925 92.6476 117.231 93.5842 117.231Z" fill="#92A3BC"/>
<path d="M101.779 119.825L103.58 108.172H106.39L104.589 119.825H101.779ZM103.742 106.551L104.193 103.633H107.183L106.732 106.551H103.742Z" fill="#92A3BC"/>
<path d="M111.739 108.154L111.775 109.649C112.208 109.144 112.766 108.712 113.504 108.352C114.225 107.974 114.999 107.793 115.846 107.793C117.197 107.793 118.187 108.19 118.818 108.982C119.466 109.775 119.664 110.891 119.448 112.314L118.277 119.825H115.468L116.53 112.909C116.656 112.116 116.548 111.504 116.206 111.035C115.864 110.567 115.324 110.351 114.567 110.351C113.721 110.351 112.982 110.675 112.334 111.342C111.685 112.008 111.289 112.855 111.127 113.899L110.208 119.843H107.399L109.2 108.19H111.739V108.154Z" fill="#92A3BC"/>
<path d="M133.01 114.782H124.257C124.221 115.682 124.455 116.385 124.924 116.907C125.41 117.429 126.076 117.682 126.941 117.682C128.328 117.682 129.39 117.069 130.111 115.826L132.578 116.691C131.93 117.808 131.083 118.672 130.039 119.285C128.994 119.897 127.823 120.185 126.545 120.185C124.725 120.185 123.375 119.609 122.474 118.456C121.573 117.303 121.267 115.808 121.555 114.007C121.826 112.224 122.636 110.747 123.969 109.577C125.302 108.406 126.815 107.812 128.472 107.812C130.093 107.812 131.353 108.334 132.254 109.36C133.155 110.405 133.461 111.864 133.155 113.755L133.01 114.782ZM128.129 110.153C127.337 110.153 126.653 110.387 126.058 110.837C125.464 111.288 124.996 111.9 124.689 112.674H130.633C130.651 110.999 129.823 110.153 128.129 110.153Z" fill="#92A3BC"/>
<path d="M9.09467 36.7397L11.5442 20.854H18.5324C19.8833 20.854 20.9819 21.2142 21.8284 21.9167C22.675 22.6371 22.9992 23.6277 22.801 24.9065C22.5849 26.2933 21.7744 27.428 20.3696 28.3106C21.072 28.6528 21.6123 29.1211 21.9905 29.7514C22.3688 30.3818 22.4768 31.1023 22.3508 31.9128C22.1166 33.4437 21.3782 34.6324 20.1534 35.4609C18.9287 36.3075 17.5598 36.7217 16.0469 36.7217H9.09467V36.7397ZM13.1111 29.8955L12.4627 34.1101H16.6052C17.3437 34.1101 17.9741 33.93 18.4784 33.5698C18.9827 33.2096 19.2889 32.6872 19.397 31.9848C19.505 31.2824 19.3609 30.7601 18.9647 30.3998C18.5685 30.0396 17.9921 29.8595 17.2537 29.8595H13.1111V29.8955ZM14.1197 23.3575L13.5074 27.356H17.3617C18.0281 27.356 18.5865 27.1939 19.0548 26.8517C19.523 26.5095 19.7932 26.0232 19.9013 25.3568C20.0093 24.7084 19.8652 24.2041 19.505 23.8799C19.1448 23.5376 18.6405 23.3755 17.9921 23.3755H14.1197V23.3575Z" fill="#92A3BC"/>
<path d="M23.4314 36.74L23.5575 35.8935C23.8277 34.1104 24.4761 32.7056 25.5027 31.6609C26.5293 30.6163 27.9882 29.6617 29.8794 28.7611C30.924 28.2568 31.6805 27.7705 32.1668 27.2662C32.6531 26.7619 32.9412 26.1676 33.0493 25.4471C33.1574 24.7267 33.0133 24.1323 32.617 23.664C32.2208 23.1957 31.6084 22.9796 30.834 22.9796C30.1495 22.9796 29.5192 23.1957 28.9608 23.61C28.3845 24.0423 28.0422 24.6006 27.9342 25.285C27.8982 25.5192 27.8982 25.7353 27.9162 25.9694L25.1425 27.0501C24.9984 26.5458 24.9624 25.9874 25.0704 25.3571C25.2685 24.0242 25.935 22.8895 27.0697 21.917C28.1863 20.9624 29.5732 20.4761 31.2302 20.4761C32.9773 20.4761 34.2741 20.9083 35.1206 21.7909C35.9671 22.6734 36.2733 23.8081 36.0571 25.195C35.877 26.3657 35.4268 27.3923 34.7063 28.2568C33.9859 29.1214 32.9052 29.8958 31.4824 30.5983C30.0775 31.3007 29.0509 31.9131 28.4025 32.4714C27.7541 33.0298 27.3758 33.6061 27.2678 34.2365H35.0485L34.6703 36.74H23.4314Z" fill="#92A3BC"/>
<path d="M37.426 36.7397L39.8755 20.854H46.8638C48.2146 20.854 49.3133 21.2142 50.1598 21.9167C51.0063 22.6371 51.3305 23.6277 51.1324 24.9065C50.9163 26.2933 50.1058 27.428 48.7009 28.3106C49.4033 28.6528 49.9437 29.1211 50.3219 29.7514C50.7001 30.3818 50.8082 31.1023 50.6821 31.9128C50.448 33.4437 49.7095 34.6324 48.4848 35.4609C47.26 36.3075 45.8912 36.7217 44.3783 36.7217H37.426V36.7397ZM41.4425 29.8955L40.7941 34.1101H44.9366C45.6751 34.1101 46.3055 33.93 46.8098 33.5698C47.3141 33.2096 47.6203 32.6872 47.7283 31.9848C47.8364 31.2824 47.6923 30.7601 47.2961 30.3998C46.8998 30.0396 46.3235 29.8595 45.585 29.8595H41.4425V29.8955ZM42.4511 23.3575L41.8387 27.356H45.6931C46.3595 27.356 46.9178 27.1939 47.3861 26.8517C47.8544 26.5095 48.1246 26.0232 48.2326 25.3568C48.3407 24.7084 48.1966 24.2041 47.8364 23.8799C47.4762 23.5376 46.9719 23.3755 46.3235 23.3755H42.4511V23.3575Z" fill="#92A3BC"/>
</svg>
