<svg width="120" height="120" viewBox="0 0 120 120" fill="none" xmlns="http://www.w3.org/2000/svg">
<circle opacity="0.05" cx="60" cy="60" r="60" fill="#00B066"/>
<path d="M59.93 78.3867C57.5033 79.2733 54.82 78.0133 53.9333 75.61C53 73.1833 54.2833 70.5 56.71 69.6367C59.1367 68.75 61.82 69.9867 62.7067 72.39C63.5933 74.8167 62.3333 77.5 59.93 78.3867ZM55.1 65.25C50.27 67 47.7733 72.3667 49.5 77.22C51.32 82.05 56.6867 84.5 61.54 82.75C66.37 81 68.8433 75.6333 67.0933 70.8033C65.32 65.95 59.93 63.5 55.1 65.25ZM69.1933 42.6867L53.8633 48.3333L57.0833 57.06L72.4133 51.4367L69.1933 42.6867ZM79.4133 63.78L68.26 67.8633C68.6567 68.54 68.9833 69.24 69.2633 69.9867C69.5433 70.7333 69.73 71.5033 69.8467 72.25L81 68.1667L79.4133 63.78ZM77.5933 52.02L57.8767 59.2533L59.02 62.3333C61.9367 62.5433 64.6667 63.8267 66.7433 65.95L80.8133 60.7933L77.5933 52.02ZM36.6667 36.6667V41.3333H43.8767L52.2067 64.0833C52.86 63.6633 53.56 63.3367 54.3067 63.0567C55.0533 62.7767 55.8233 62.59 56.57 62.4733L47.1667 36.6667" fill="#00B066"/>
</svg>
