<svg width="20" height="20" viewBox="0 0 20 20" fill="none" xmlns="http://www.w3.org/2000/svg">
<path d="M9.16602 7.49996H10.8327V5.83329H9.16602V7.49996ZM9.99935 16.6666C6.32435 16.6666 3.33268 13.675 3.33268 9.99996C3.33268 6.32496 6.32435 3.33329 9.99935 3.33329C13.6743 3.33329 16.666 6.32496 16.666 9.99996C16.666 13.675 13.6743 16.6666 9.99935 16.6666ZM9.99935 1.66663C8.905 1.66663 7.82137 1.88217 6.81032 2.30096C5.79927 2.71975 4.88061 3.33358 4.10679 4.1074C2.54399 5.67021 1.66602 7.78982 1.66602 9.99996C1.66602 12.2101 2.54399 14.3297 4.10679 15.8925C4.88061 16.6663 5.79927 17.2802 6.81032 17.699C7.82137 18.1177 8.905 18.3333 9.99935 18.3333C12.2095 18.3333 14.3291 17.4553 15.8919 15.8925C17.4547 14.3297 18.3327 12.2101 18.3327 9.99996C18.3327 8.90561 18.1171 7.82198 17.6983 6.81093C17.2796 5.79988 16.6657 4.88122 15.8919 4.1074C15.1181 3.33358 14.1994 2.71975 13.1884 2.30096C12.1773 1.88217 11.0937 1.66663 9.99935 1.66663V1.66663ZM9.16602 14.1666H10.8327V9.16663H9.16602V14.1666Z" fill="#BDCCE2"/>
</svg>
