<svg width="120" height="120" viewBox="0 0 120 120" fill="none" xmlns="http://www.w3.org/2000/svg">
<circle opacity="0.05" cx="60" cy="60" r="60" fill="#00B066"/>
<path d="M46 46H74V55.24L60 50.6667L46 55.24V46ZM41.1933 76.3334H41.3333C45.0667 76.3334 48.3333 74.28 50.6667 71.6667C53 74.28 56.2667 76.3334 60 76.3334C63.7333 76.3334 67 74.28 69.3333 71.6667C71.6667 74.28 74.9333 76.3334 78.6667 76.3334H78.7833L83.2167 60.7234C83.4033 60.14 83.3333 59.4867 83.0767 58.9267C82.7733 58.3667 82.2833 57.9467 81.6767 57.76L78.6667 56.78V46C78.6667 43.41 76.5667 41.3334 74 41.3334H67V34.3334H53V41.3334H46C44.7623 41.3334 43.5753 41.825 42.7002 42.7002C41.825 43.5754 41.3333 44.7624 41.3333 46V56.78L38.3233 57.76C37.7167 57.9467 37.2267 58.3667 36.9233 58.9267C36.6667 59.4867 36.5967 60.14 36.7833 60.7234L41.1933 76.3334ZM78.6667 81C75.4233 81 72.18 79.9034 69.3333 77.8967C63.64 81.8867 56.36 81.8867 50.6667 77.8967C47.82 79.9034 44.5767 81 41.3333 81H36.6667V85.6667H41.3333C44.53 85.6667 47.7267 84.85 50.6667 83.3334C56.5 86.3667 63.5 86.3667 69.3333 83.3334C72.2733 84.85 75.4467 85.6667 78.6667 85.6667H83.3333V81H78.6667Z" fill="#00B066"/>
</svg>
