<svg width="120" height="120" viewBox="0 0 120 120" fill="none" xmlns="http://www.w3.org/2000/svg">
<circle opacity="0.05" cx="60" cy="60" r="60" fill="#00B066"/>
<path d="M57.3167 62.3333H62.058L62.6833 57.6666H57.942L57.3167 62.3333Z" fill="#00B066"/>
<path d="M36.0966 78.6188C37.4244 80.1331 39.3447 81 41.3638 81L53.486 81C56.9851 81 59.9932 78.3664 60.4431 74.8769L60.8422 70.8262L56.1237 70.8262L55.8014 74.2844C55.6477 75.4475 54.6368 76.3254 53.486 76.3254L41.3528 76.3254C40.6724 76.3254 40.047 76.0401 39.5971 75.5353C39.1471 75.0196 38.9496 74.3721 39.0374 73.6918L41.0026 57.8536C41.1562 56.6904 42.1438 55.8126 43.3179 55.8126L55.8256 55.8126L58.13 55.8126L60.5152 55.8126L63.1159 55.8126L68.0728 55.8126L67.8423 57.7658C67.7216 58.8083 68.8957 59.3679 69.7517 58.6547L74.964 54.3641C75.5456 53.8813 75.6443 53.0583 75.1725 52.5864L70.9807 48.2959C70.2894 47.5936 68.9835 48.1423 68.8519 49.1847L68.6214 51.138L64.1473 51.138L61.1077 51.138L58.7226 51.138L56.8461 51.138L43.307 51.138C39.7845 51.138 36.7998 53.7716 36.3499 57.2611L34.3848 73.0883C34.1433 75.0854 34.7578 77.1045 36.0966 78.6188Z" fill="#00B066"/>
<path d="M83.8938 41.3812C82.566 39.8669 80.6457 39 78.6266 39H66.5044C63.0053 39 59.9972 41.6336 59.5473 45.1231L59.1482 49.1738H63.8667L64.189 45.7156C64.3426 44.5525 65.3536 43.6746 66.5044 43.6746H78.6376C79.3179 43.6746 79.9434 43.9599 80.3933 44.4647C80.8432 44.9804 81.0407 45.6279 80.9529 46.3082L78.9878 62.1464C78.8342 63.3095 77.8466 64.1874 76.6724 64.1874H64.1647H61.8603H59.4752H56.8745H51.9176L52.148 62.2342C52.2687 61.1917 51.0946 60.6321 50.2387 61.3453L45.0264 65.6359C44.4448 66.1187 44.346 66.9417 44.8179 67.4135L49.0097 71.7041C49.701 72.4064 51.0068 71.8577 51.1385 70.8153L51.3689 68.862H55.843H58.8826H61.2678H63.1442H76.6834C80.2058 68.862 83.1906 66.2284 83.6405 62.7389L85.6056 46.9117C85.847 44.9146 85.2325 42.8955 83.8938 41.3812Z" fill="#00B066"/>
</svg>
