<svg width="68" height="68" viewBox="0 0 68 68" fill="none" xmlns="http://www.w3.org/2000/svg">
<path d="M31.3426 38.668H35.5542L36.6512 30.0881H32.4396L31.3426 38.668Z" fill="white"/>
<path d="M29.2663 54.8288C29.1291 55.867 28.2379 56.6505 27.1997 56.6505H6.26905C5.6618 56.6505 5.10352 56.3959 4.70195 55.9453C4.30038 55.485 4.12408 54.9071 4.20244 54.2999L7.29746 30.1665C7.43459 29.1283 8.32587 28.3447 9.36408 28.3447H31.5875H32.6649H36.8765H40.1772H47.6209L47.4348 29.9412C47.3271 30.8717 48.3751 31.3712 49.1391 30.7346L53.7914 26.905C54.3105 26.474 54.3987 25.7394 53.9775 25.3183L50.236 21.4887C49.619 20.8618 48.4535 21.3516 48.3359 22.282L48.1107 24.1821H40.1772H37.4152H33.2036H31.5875H9.36408C6.22008 24.1821 3.55601 26.5328 3.15444 29.6474L0.0496202 53.771C-0.175651 55.5535 0.372836 57.3557 1.55796 58.7073C2.74308 60.059 4.45709 60.8327 6.25926 60.8327H27.1899C30.3339 60.8327 32.9979 58.4821 33.3995 55.3674L34.565 46.337H30.3534L29.2663 54.8288Z" fill="white"/>
<path d="M66.4262 10.0587C65.241 8.70708 63.527 7.93332 61.7248 7.93332H40.8041C37.6601 7.93332 34.996 10.284 34.5944 13.3986L33.4289 22.429H37.6405L38.7374 13.9275C38.8746 12.8893 39.7561 12.1057 40.8041 12.1057H61.7346C62.3419 12.1057 62.9002 12.3604 63.3017 12.8109C63.7033 13.2713 63.8796 13.8491 63.8013 14.4564L60.6964 38.5897C60.5593 39.6279 59.6778 40.4115 58.6298 40.4115H37.3858H35.329H31.1174H28.7961H20.2065L20.4121 38.6681C20.5199 37.7376 19.4719 37.2381 18.7079 37.8747L14.0556 41.7043C13.5365 42.1353 13.4483 42.8699 13.8695 43.291L17.611 47.1206C18.228 47.7475 19.3935 47.2578 19.5111 46.3273L19.7167 44.5839H27.8755H30.5885H34.8001H36.4749H58.6396C61.7836 44.5839 64.4477 42.2332 64.8493 39.1186L67.9541 14.9951C68.1696 13.2125 67.6211 11.4103 66.4262 10.0587Z" fill="white"/>
</svg>
