<svg width="120" height="120" viewBox="0 0 120 120" fill="none" xmlns="http://www.w3.org/2000/svg">
<circle opacity="0.05" cx="60" cy="60" r="60" fill="#00B066"/>
<path d="M62.4967 56.29C63.9141 54.3096 64.6762 51.9353 64.6762 49.5C64.6762 47.0646 63.9141 44.6904 62.4967 42.71C63.8232 41.8045 65.394 41.3244 67 41.3333C69.166 41.3333 71.2432 42.1937 72.7747 43.7253C74.3063 45.2568 75.1667 47.334 75.1667 49.5C75.1667 51.6659 74.3063 53.7431 72.7747 55.2747C71.2432 56.8062 69.166 57.6666 67 57.6666C65.394 57.6756 63.8232 57.1954 62.4967 56.29ZM44.8334 49.5C44.8334 47.8848 45.3123 46.3058 46.2097 44.9628C47.107 43.6198 48.3825 42.5731 49.8748 41.955C51.367 41.3368 53.0091 41.1751 54.5933 41.4902C56.1774 41.8053 57.6326 42.5831 58.7747 43.7253C59.9169 44.8674 60.6947 46.3226 61.0098 47.9067C61.3249 49.4909 61.1632 51.133 60.545 52.6252C59.9269 54.1175 58.8802 55.393 57.5372 56.2903C56.1942 57.1877 54.6152 57.6666 53 57.6666C50.8341 57.6666 48.7569 56.8062 47.2253 55.2747C45.6938 53.7431 44.8334 51.6659 44.8334 49.5ZM49.5 49.5C49.5 50.1922 49.7053 50.8689 50.0899 51.4445C50.4745 52.02 51.0211 52.4687 51.6606 52.7336C52.3002 52.9985 53.0039 53.0678 53.6828 52.9327C54.3618 52.7977 54.9854 52.4643 55.4749 51.9749C55.9644 51.4854 56.2977 50.8617 56.4328 50.1828C56.5678 49.5039 56.4985 48.8001 56.2336 48.1606C55.9687 47.521 55.5201 46.9744 54.9445 46.5898C54.3689 46.2053 53.6923 46 53 46C52.0718 46 51.1815 46.3687 50.5251 47.0251C49.8688 47.6815 49.5 48.5717 49.5 49.5ZM69.3334 71.6666V76.3333H36.6667V71.6666C36.6667 71.6666 36.6667 62.3333 53 62.3333C69.3334 62.3333 69.3334 71.6666 69.3334 71.6666ZM64.6667 71.6666C64.34 69.8466 61.5634 67 53 67C44.4367 67 41.4967 70.0566 41.3334 71.6666H64.6667ZM69.2167 62.3333C70.6468 63.4457 71.8161 64.8576 72.6424 66.47C73.4688 68.0824 73.9322 69.8561 74 71.6666V76.3333H83.3334V71.6666C83.3334 71.6666 83.3334 63.1966 69.1934 62.3333H69.2167Z" fill="#00B066"/>
</svg>
